HIERARCHY
ROOT Hips
{
	OFFSET 55.310501 45.591206 43.872097
	CHANNELS 6 Xposition Yposition Zposition Zrotation Xrotation Yrotation
	JOINT Chest
	{
		OFFSET -0.153500 1.163101 7.852402
		CHANNELS 6 Xposition Yposition Zposition Zrotation Xrotation Yrotation
		JOINT Chest2
		{
			OFFSET 0.000000 0.000000 3.343300
			CHANNELS 6 Xposition Yposition Zposition Zrotation Xrotation Yrotation
			JOINT Neck
			{
				OFFSET 0.000000 0.000000 7.785500
				CHANNELS 6 Xposition Yposition Zposition Zrotation Xrotation Yrotation
				JOINT Head
				{
					OFFSET 0.000000 0.000000 2.173901
					CHANNELS 6 Xposition Yposition Zposition Zrotation Xrotation Yrotation
					End Site
					{
						OFFSET 0.000000 0.000000 10.528198
					}
				}
			}
			JOINT LeftCollar
			{
				OFFSET 2.676300 -1.652401 4.938301
				CHANNELS 6 Xposition Yposition Zposition Zrotation Xrotation Yrotation
				JOINT LeftShoulder
				{
					OFFSET 4.299000 0.000000 0.000000
					CHANNELS 6 Xposition Yposition Zposition Zrotation Xrotation Yrotation
					JOINT LeftElbow
					{
						OFFSET 0.000000 0.000000 -10.245102
						CHANNELS 6 Xposition Yposition Zposition Zrotation Xrotation Yrotation
						JOINT LeftWrist
						{
							OFFSET 0.000000 0.000000 -12.703300
							CHANNELS 6 Xposition Yposition Zposition Zrotation Xrotation Yrotation
							End Site
							{
								OFFSET 0.000000 0.000000 -2.173901
							}
						}
					}
				}
			}
			JOINT RightCollar
			{
				OFFSET -2.534599 -1.686401 5.195000
				CHANNELS 6 Xposition Yposition Zposition Zrotation Xrotation Yrotation
				JOINT RightShoulder
				{
					OFFSET -4.144100 0.000000 0.000000
					CHANNELS 6 Xposition Yposition Zposition Zrotation Xrotation Yrotation
					JOINT RightElbow
					{
						OFFSET 0.000000 0.000000 -10.116501
						CHANNELS 6 Xposition Yposition Zposition Zrotation Xrotation Yrotation
						JOINT RightWrist
						{
							OFFSET 0.000000 0.000000 -12.937801
							CHANNELS 6 Xposition Yposition Zposition Zrotation Xrotation Yrotation
							End Site
							{
								OFFSET 0.000000 0.000000 -2.173901
							}
						}
					}
				}
			}
		}
	}
	JOINT LeftHip
	{
		OFFSET 2.175598 0.064499 -2.662899
		CHANNELS 6 Xposition Yposition Zposition Zrotation Xrotation Yrotation
		JOINT LeftKnee
		{
			OFFSET 0.000000 -0.000004 -18.585800
			CHANNELS 6 Xposition Yposition Zposition Zrotation Xrotation Yrotation
			JOINT LeftAnkle
			{
				OFFSET 0.000000 0.000000 -18.979500
				CHANNELS 6 Xposition Yposition Zposition Zrotation Xrotation Yrotation
				End Site
				{
					OFFSET 0.000000 -9.264000 0.000000
				}
			}
		}
	}
	JOINT RightHip
	{
		OFFSET -2.092400 -0.058102 -2.581200
		CHANNELS 6 Xposition Yposition Zposition Zrotation Xrotation Yrotation
		JOINT RightKnee
		{
			OFFSET 0.000000 -0.000004 -18.665001
			CHANNELS 6 Xposition Yposition Zposition Zrotation Xrotation Yrotation
			JOINT RightAnkle
			{
				OFFSET 0.000000 0.000000 -18.566601
				CHANNELS 6 Xposition Yposition Zposition Zrotation Xrotation Yrotation
				End Site
				{
					OFFSET 0.000000 -8.497601 0.000000
				}
			}
		}
	}
}
MOTION
Frames: 6
Frame Time: 0.041667
60.291008 34.790699 41.552391 1062.647279 8.444668 -4.090671 -0.153491 1.163097 7.852404 -14.432719 16.663298 8.034641 0.000003 0.000007 3.343302 0.769065 -9.144518 0.083033 -0.000002 -0.000009 7.785508 50.928267 -9.261071 -2.491475 -0.000003 -0.000000 2.173904 6.940969 -2.570768 7.849335 2.676293 -1.652402 4.938306 -7.628173 5.351296 22.402923 4.299004 0.000001 -0.000007 -10.663412 -2.938157 -72.636897 0.000001 -0.000004 -10.245115 55.038750 706.058511 0.380092 0.000004 -0.000006 -12.703299 1332.067861 -178.380594 536.876474 -2.534601 -1.686404 5.195002 1.866513 7.994589 -0.798548 -4.144094 0.000002 -0.000002 40.943603 -29.543519 98.113045 -0.000002 -0.000002 -10.116495 -93.710127 -21.298172 -60.045914 0.000002 0.000015 -12.937806 -288.511589 -365.624042 53.454368 2.175601 0.064492 -2.662900 -701.666208 -33.052248 10.768172 -0.000009 -0.000003 -18.585800 146.596678 -225.492275 -143.935814 -0.000004 -0.000003 -18.979513 756.357554 -2.607860 -122.368781 -2.092388 -0.058105 -2.581203 220.147543 -19.422172 -110.556222 0.000008 -0.000001 -18.665014 -941.722113 54.662431 -93.397257 -0.000000 -0.000011 -18.566597 703.023885 2.521441 -13.665475
60.252506 34.853001 41.544888 1062.728695 8.486266 -4.139686 -0.153493 1.163098 7.852407 -14.533627 16.781010 8.186426 0.000000 -0.000004 3.343302 0.811899 -9.195630 0.084441 -0.000003 -0.000013 7.785502 50.847603 -9.343082 -2.483760 0.000001 0.000005 2.173911 6.943030 -2.635256 7.850750 2.676307 -1.652406 4.938302 -7.571291 5.370834 22.473276 4.298999 0.000012 0.000005 -10.881588 -3.234667 -72.956140 -0.000010 -0.000007 -10.245111 54.758180 706.032065 0.370935 0.000002 -0.000002 -12.703299 1332.190258 -178.443501 536.695884 -2.534595 -1.686399 5.194999 1.928393 8.095495 -0.857064 -4.144101 -0.000010 -0.000002 40.936438 -29.630884 98.091195 0.000005 -0.000001 -10.116499 -93.706159 -21.392069 -60.089709 0.000007 -0.000008 -12.937799 -288.958447 -366.579722 53.097112 2.175598 0.064492 -2.662896 -698.404874 -32.889243 12.628689 -0.000004 -0.000004 -18.585793 143.546725 -225.789634 -143.688220 -0.000005 0.000001 -18.979513 756.455909 -2.598488 -122.479799 -2.092394 -0.058101 -2.581195 220.255350 -19.585690 -110.519366 0.000006 0.000006 -18.665007 -941.904287 54.364863 -93.297345 0.000003 -0.000003 -18.566599 702.784610 2.562926 -13.490645
60.210007 34.921303 41.534397 1063.334013 8.522243 -4.234618 -0.153494 1.163101 7.852410 -15.154037 16.871790 8.318404 0.000006 0.000004 3.343305 0.860100 -9.252554 0.086185 0.000003 0.000002 7.785503 50.763069 -9.455668 -2.495724 0.000009 0.000003 2.173905 6.941619 -2.681085 7.862888 2.676301 -1.652398 4.938303 -7.514916 5.445908 22.637052 4.298994 0.000008 -0.000004 -11.139087 -3.549250 -73.413667 0.000007 -0.000008 -10.245098 54.423927 706.033649 0.345617 -0.000014 0.000000 -12.703302 1332.344238 -178.421712 536.600971 -2.534595 -1.686397 5.195002 2.073144 8.302217 -0.996099 -4.144095 -0.000006 -0.000005 40.823057 -29.628121 98.121377 0.000000 0.000003 -10.116491 -93.935879 -21.545302 -60.302156 0.000003 0.000010 -12.937803 -289.845634 -367.137612 53.811864 2.175591 0.064492 -2.662893 -698.564209 -33.098270 12.912603 -0.000009 -0.000002 -18.585800 143.036456 -225.960034 -143.586204 -0.000003 0.000001 -18.979515 756.576557 -2.572018 -122.627495 -2.092392 -0.058092 -2.581190 219.860484 -19.693271 -110.484703 0.000004 0.000001 -18.665007 -942.090943 54.172997 -93.186696 0.000000 -0.000003 -18.566605 702.588393 2.600916 -13.310955
60.166306 34.993801 41.522297 1063.463404 8.579368 -4.295399 -0.153498 1.163105 7.852407 -15.315815 16.977287 8.524592 -0.000002 0.000009 3.343300 0.926695 -9.308795 0.088226 -0.000002 0.000008 7.785499 50.654165 -9.598561 -2.510946 -0.000004 0.000002 2.173903 6.915313 -2.719884 7.849148 2.676294 -1.652396 4.938302 -7.520778 5.559219 22.785071 4.299006 0.000013 -0.000003 -11.350501 -4.016976 -73.886425 -0.000004 -0.000005 -10.245096 54.022808 706.009716 0.326082 -0.000006 -0.000005 -12.703298 1332.364236 -178.409773 536.727521 -2.534597 -1.686398 5.195000 2.266387 8.557989 -1.215037 -4.144100 0.000006 -0.000003 40.757624 -29.657306 98.310949 0.000000 0.000004 -10.116501 -94.102440 -21.610775 -60.382697 -0.000006 0.000020 -12.937809 -290.211924 -368.094495 53.411215 2.175595 0.064487 -2.662894 -698.474214 -33.290779 13.131662 -0.000000 -0.000005 -18.585796 142.665467 -226.057460 -143.495198 -0.000005 -0.000002 -18.979513 756.801790 -2.518290 -122.796187 -2.092392 -0.058105 -2.581197 219.957827 -19.572727 -110.473201 -0.000002 -0.000001 -18.665007 -942.005265 54.110200 -93.146452 -0.000001 -0.000002 -18.566599 702.518998 2.736873 -13.045301
60.123798 35.070602 41.508293 1063.566021 8.653779 -4.352239 -0.153503 1.163110 7.852406 -15.424077 17.059553 8.704182 0.000000 0.000004 3.343302 0.980273 -9.342640 0.089675 0.000005 0.000001 7.785499 50.549595 -9.712368 -2.506865 -0.000007 0.000000 2.173904 6.907059 -2.770891 7.844427 2.676303 -1.652398 4.938302 -7.501300 5.636978 22.926572 4.299006 0.000003 0.000004 -11.632990 -4.375725 -74.347996 0.000002 0.000005 -10.245115 53.751991 706.026437 0.313003 -0.000021 -0.000003 -12.703303 1332.534937 -178.244086 537.219896 -2.534596 -1.686407 5.194999 2.497286 8.816094 -1.371947 -4.144101 -0.000004 0.000002 40.673537 -29.715028 98.491287 0.000001 -0.000001 -10.116489 -94.312748 -21.610485 -60.412292 -0.000002 0.000009 -12.937802 -290.540019 -369.043945 53.002948 2.175601 0.064494 -2.662891 -698.199969 -33.509854 13.426643 -0.000002 0.000002 -18.585804 142.275805 -226.244552 -143.427743 -0.000008 -0.000003 -18.979513 756.927848 -2.449150 -122.962475 -2.092392 -0.058094 -2.581189 220.076673 -19.518782 -110.479355 0.000010 0.000001 -18.665007 -942.018379 54.367572 -93.095164 0.000004 0.000002 -18.566601 702.711172 2.967245 -12.627594
60.079102 35.155701 41.494392 1063.673446 8.758833 -4.367233 -0.153498 1.163093 7.852405 -15.466292 17.137812 8.802668 -0.000005 0.000007 3.343302 1.002413 -9.373452 0.090749 0.000004 0.000006 7.785499 50.427826 -9.794192 -2.468174 -0.000000 0.000005 2.173903 6.911218 -2.826472 7.852851 2.676295 -1.652400 4.938300 -7.373435 5.732996 23.046510 4.299004 0.000004 0.000001 -12.079499 -4.641145 -74.797668 -0.000005 -0.000014 -10.245104 53.454413 706.091733 0.280040 -0.000009 0.000001 -12.703293 1332.171898 -178.163299 537.525397 -2.534599 -1.686399 5.194997 2.697711 9.013585 -1.468258 -4.144094 0.000004 -0.000007 40.642870 -29.780021 98.643040 -0.000003 0.000007 -10.116499 -94.588824 -21.451251 -60.137370 -0.000011 0.000010 -12.937806 -291.006739 -370.972955 52.208474 2.175599 0.064493 -2.662892 -697.890315 -33.786391 13.721388 0.000000 -0.000005 -18.585794 141.853562 -226.453201 -143.347707 -0.000003 0.000001 -18.979509 757.047567 -2.357881 -123.108354 -2.092398 -0.058106 -2.581192 220.213632 -19.427655 -110.455811 0.000006 -0.000009 -18.665007 -942.083293 54.726310 -93.016781 0.000003 -0.000003 -18.566597 703.006673 3.291848 -12.044023
